<svg xmlns="http://www.w3.org/2000/svg" width="1242" height="1660" viewBox="0 0 1242 1660">
  <rect width="1242" height="1660" fill="#f4f1ea"/>
  <rect x="70" y="70" width="1102" height="1520" rx="34" fill="#fbfaf6" stroke="#222" stroke-width="3"/>
  <text x="112" y="170" font-family="Arial, 'PingFang SC', sans-serif" font-size="34" font-weight="700" fill="#1f2933">AI内容工作流 / 数字资料</text>
  <text x="112" y="280" font-family="Arial, 'PingFang SC', sans-serif" font-size="78" font-weight="900" fill="#111">科技产业链</text>
  <text x="112" y="375" font-family="Arial, 'PingFang SC', sans-serif" font-size="78" font-weight="900" fill="#111">解剖图 Skill</text>
  <text x="116" y="450" font-family="Arial, 'PingFang SC', sans-serif" font-size="34" font-weight="600" fill="#334155">把 AI / 芯片 / 云计算 / 机器人拆成小红书图文</text>

  <g transform="translate(120 545)">
    <rect x="0" y="0" width="1000" height="600" rx="24" fill="#e9eef0" stroke="#111" stroke-width="2"/>
    <rect x="80" y="70" width="840" height="78" rx="12" fill="#111827"/>
    <text x="112" y="122" font-family="Arial, 'PingFang SC', sans-serif" font-size="32" font-weight="800" fill="#fff">技术结构解剖信息图</text>

    <g font-family="Arial, 'PingFang SC', sans-serif" font-size="25" font-weight="700" fill="#111">
      <rect x="150" y="205" width="700" height="62" rx="10" fill="#ffffff" stroke="#111" stroke-width="2"/>
      <text x="185" y="246">上层应用：内容生成 / 智能客服 / 行业方案</text>
      <rect x="190" y="292" width="620" height="62" rx="10" fill="#d9ead7" stroke="#111" stroke-width="2"/>
      <text x="225" y="333">工具链：RAG / Agent / MLOps / API</text>
      <rect x="230" y="379" width="540" height="62" rx="10" fill="#dbeafe" stroke="#111" stroke-width="2"/>
      <text x="265" y="420">模型层：预训练 / 微调 / 评测</text>
      <rect x="270" y="466" width="460" height="62" rx="10" fill="#fef3c7" stroke="#111" stroke-width="2"/>
      <text x="305" y="507">底层：算力 / 数据 / 能源</text>
    </g>

    <g stroke="#111" stroke-width="3" fill="none">
      <path d="M850 235 C930 235 930 120 915 110"/>
      <path d="M810 323 C930 323 930 515 730 515"/>
      <path d="M230 410 C95 410 95 246 150 236"/>
    </g>
    <g font-family="Arial, 'PingFang SC', sans-serif" font-size="22" font-weight="700" fill="#111">
      <rect x="715" y="160" width="250" height="52" rx="10" fill="#fff" stroke="#111" stroke-width="2"/>
      <text x="735" y="195">价值流向</text>
      <rect x="55" y="330" width="250" height="52" rx="10" fill="#fff" stroke="#111" stroke-width="2"/>
      <text x="75" y="365">真实瓶颈</text>
      <rect x="720" y="535" width="230" height="52" rx="10" fill="#fff" stroke="#111" stroke-width="2"/>
      <text x="740" y="570">商业化路径</text>
    </g>
  </g>

  <g transform="translate(112 1215)" font-family="Arial, 'PingFang SC', sans-serif">
    <rect x="0" y="0" width="300" height="92" rx="16" fill="#111827"/>
    <text x="34" y="58" font-size="30" font-weight="800" fill="#fff">Prompt模板</text>
    <rect x="338" y="0" width="300" height="92" rx="16" fill="#0f766e"/>
    <text x="372" y="58" font-size="30" font-weight="800" fill="#fff">文案结构</text>
    <rect x="676" y="0" width="300" height="92" rx="16" fill="#b45309"/>
    <text x="710" y="58" font-size="30" font-weight="800" fill="#fff">选题方法</text>
  </g>

  <text x="112" y="1415" font-family="Arial, 'PingFang SC', sans-serif" font-size="42" font-weight="900" fill="#111">适合科技博主 / AI自媒体 / 内容运营</text>
  <text x="112" y="1486" font-family="Arial, 'PingFang SC', sans-serif" font-size="30" font-weight="600" fill="#475569">交付：Skill 文件 + 使用说明 + 示例模板</text>
</svg>
