<svg xmlns="http://www.w3.org/2000/svg" width="1080" height="1440" viewBox="0 0 1080 1440">
  <defs>
    <linearGradient id="bg" x1="0" y1="0" x2="1" y2="1">
      <stop offset="0%" stop-color="#fbf7f1"/>
      <stop offset="100%" stop-color="#eee4dc"/>
    </linearGradient>
    <filter id="shadow" x="-20%" y="-20%" width="140%" height="140%">
      <feDropShadow dx="0" dy="16" stdDeviation="20" flood-color="#6d5650" flood-opacity="0.12"/>
    </filter>
  </defs>
  <rect width="1080" height="1440" fill="url(#bg)"/>
  <rect x="74" y="70" width="932" height="1300" rx="32" fill="#fffaf6" filter="url(#shadow)"/>
  <rect x="106" y="104" width="868" height="1232" rx="24" fill="none" stroke="#dfd0c7" stroke-width="2"/>
  <text x="126" y="168" font-size="22" font-weight="800" letter-spacing="4" fill="#b18b80">AI ECOMMERCE PROMPT</text>
  <text x="126" y="262" font-size="60" font-weight="900" fill="#2d2523">尺码适配图</text>
  <text x="126" y="318" font-size="30" fill="#7b6a64">信息图要先写清楚区块</text>
  <line x1="126" y1="372" x2="954" y2="372" stroke="#dfd0c7" stroke-width="2"/>

  <rect x="126" y="420" width="828" height="112" rx="20" fill="#f4e8e4"/>
  <text x="158" y="464" font-size="26" font-weight="800" fill="#6b4540">核心提示词</text>
  <text x="158" y="504" font-size="25" fill="#2d2523">测量方法 + 尺码参考 + 胸型建议</text>

  <rect x="126" y="582" width="828" height="88" rx="18" fill="#fff" stroke="#e0d2c8"/>
  <text x="158" y="638" font-size="28" font-weight="900" fill="#2d2523">A. 上胸围 / 下胸围测量示意</text>
  <rect x="126" y="700" width="828" height="88" rx="18" fill="#fff" stroke="#e0d2c8"/>
  <text x="158" y="756" font-size="28" font-weight="900" fill="#2d2523">B. 清晰表格化尺码参考</text>
  <rect x="126" y="818" width="828" height="88" rx="18" fill="#fff" stroke="#e0d2c8"/>
  <text x="158" y="874" font-size="28" font-weight="900" fill="#2d2523">C. 上胸薄 / 外扩 / 丰满 / 日常舒适</text>

  <rect x="126" y="958" width="828" height="230" rx="24" fill="#2d2523"/>
  <text x="160" y="1010" font-size="26" font-weight="800" fill="#f5d8cf">可以这样写</text>
  <text x="160" y="1064" font-size="30" font-weight="800" fill="#ffffff">“生成一张竖版高端电商尺码说明图，包含</text>
  <text x="160" y="1110" font-size="30" font-weight="800" fill="#ffffff">测量方法、尺码参考表、胸型适配建议三个区块，</text>
  <text x="160" y="1156" font-size="30" font-weight="800" fill="#ffffff">版式清晰、表格工整、信息可信。”</text>

  <text x="126" y="1240" font-size="30" font-weight="900" fill="#2d2523">复杂文字建议后期排版</text>
  <text x="126" y="1288" font-size="26" fill="#74645e">AI 负责画面框架，中文细节可再精修。</text>
  <text x="928" y="1322" text-anchor="end" font-size="22" fill="#a7948e">04 / 04</text>
</svg>
