<svg xmlns="http://www.w3.org/2000/svg" width="1080" height="1440" viewBox="0 0 1080 1440">
  <defs>
    <linearGradient id="bg" x1="0" y1="0" x2="1" y2="1">
      <stop offset="0%" stop-color="#fbf3e7"/>
      <stop offset="100%" stop-color="#efe2d0"/>
    </linearGradient>
    <filter id="shadow" x="-20%" y="-20%" width="140%" height="140%">
      <feDropShadow dx="0" dy="18" stdDeviation="20" flood-color="#8a6b51" flood-opacity="0.13"/>
    </filter>
  </defs>
  <rect width="1080" height="1440" fill="url(#bg)"/>
  <circle cx="944" cy="128" r="92" fill="#d9b996" opacity="0.23"/>
  <circle cx="128" cy="1290" r="112" fill="#c98983" opacity="0.15"/>
  <rect x="64" y="64" width="952" height="1312" rx="34" fill="#fff8ee" opacity="0.86" filter="url(#shadow)"/>
  <rect x="92" y="92" width="896" height="1256" rx="26" fill="none" stroke="#d8c4ad" stroke-width="2"/>
  <text x="108" y="165" font-size="24" font-weight="800" letter-spacing="3" fill="#a27d60">COPY TEMPLATE</text>
  <text x="108" y="265" font-size="58" font-weight="900" fill="#2b2521">完整可复制提示词</text>
  <text x="108" y="325" font-size="32" font-weight="500" fill="#806d5f">一段话生成综合形象分析面板</text>
  <line x1="108" y1="384" x2="972" y2="384" stroke="#d8c4ad" stroke-width="2"/>
  <rect x="108" y="412" width="138" height="34" rx="17" fill="#2d2723"/>
  <text x="177" y="436" text-anchor="middle" font-size="20" font-weight="700" fill="#fff">文字教学图</text>
  <rect x="264" y="412" width="148" height="34" rx="17" fill="#b88a6b"/>
  <text x="338" y="436" text-anchor="middle" font-size="20" font-weight="700" fill="#fff">小红书3:4</text>
  
      <text x="108" y="478" font-size="30" font-weight="800" fill="#2d2723">复制这段提示词</text>
      <rect x="108" y="510" width="864" height="570" rx="22" fill="#fffaf2" stroke="#dac9b5" stroke-width="2"/>
      <text x="148" y="568" font-size="25" font-weight="500" fill="#3d342e">请基于我上传的自拍/照片，保持同一身份、五官比例</text>
<text x="148" y="606.75" font-size="25" font-weight="500" fill="#3d342e">肤色气质和真实质感，</text>
<text x="148" y="645.5" font-size="25" font-weight="500" fill="#3d342e">为我生成一张【女生综合形象分析面板】。风格：</text>
<text x="148" y="684.25" font-size="25" font-weight="500" fill="#3d342e">奢侈时尚/美妆杂志风，纯米色/象牙色背景，暖色调</text>
<text x="148" y="723" font-size="25" font-weight="500" fill="#3d342e">柔和漫射光，超逼真摄影质感，简洁优雅线条，</text>
<text x="148" y="761.75" font-size="25" font-weight="500" fill="#3d342e">精致网格设计，高级留白，中文短标签。内容：</text>
<text x="148" y="800.5" font-size="25" font-weight="500" fill="#3d342e">中央自然增强肖像，周围加入妆容、发型、色彩、</text>
<text x="148" y="839.25" font-size="25" font-weight="500" fill="#3d342e">穿搭风格分析，包含色板、小图标、局部特写、</text>
<text x="148" y="878" font-size="25" font-weight="500" fill="#3d342e">推荐/避免、最终风格结果。要求：自然高级，不夸张</text>
<text x="148" y="916.75" font-size="25" font-weight="500" fill="#3d342e">不廉价，不改变本人身份，不要品牌logo，文字短</text>
<text x="148" y="955.5" font-size="25" font-weight="500" fill="#3d342e">清晰、优雅。</text>
      <text x="108" y="1148" font-size="30" font-weight="800" fill="#2d2723">效果会包含</text>
      
    <rect x="108" y="1182" width="172" height="50" rx="25" fill="#B88A6B" opacity="0.92"/>
    <text x="194" y="1215" text-anchor="middle" font-size="22" font-weight="700" fill="#fff">身份保留</text>

    <rect x="313" y="1182" width="172" height="50" rx="25" fill="#C99691" opacity="0.92"/>
    <text x="399" y="1215" text-anchor="middle" font-size="22" font-weight="700" fill="#fff">高级杂志感</text>

    <rect x="518" y="1182" width="172" height="50" rx="25" fill="#A5A879" opacity="0.92"/>
    <text x="604" y="1215" text-anchor="middle" font-size="22" font-weight="700" fill="#fff">四大分析模块</text>

    <rect x="108" y="1254" width="172" height="50" rx="25" fill="#917A67" opacity="0.92"/>
    <text x="194" y="1287" text-anchor="middle" font-size="22" font-weight="700" fill="#fff">中文短标签</text>

    <rect x="313" y="1254" width="172" height="50" rx="25" fill="#D1B28C" opacity="0.92"/>
    <text x="399" y="1287" text-anchor="middle" font-size="22" font-weight="700" fill="#fff">自然不夸张</text>
    
  
  <text x="934" y="1328" text-anchor="end" font-size="22" fill="#a89583">07 / 07</text>
</svg>