<?xml version="1.0" encoding="UTF-8"?>
<svg xmlns="http://www.w3.org/2000/svg" width="1080" height="1440" viewBox="0 0 1080 1440">
  <title>不是手机写代码 而是手机接管 Codex</title>
  
  <rect width="1080" height="1440" rx="0" fill="#f7f8f4"/>
  <circle cx="960" cy="132" r="110" fill="#dcefe4" opacity=".75"/>
  <circle cx="110" cy="1260" r="150" fill="#e9eee9" opacity=".9"/>
  <path d="M0 1120 C220 1040 360 1190 560 1110 C760 1030 880 1090 1080 1010 L1080 1440 L0 1440 Z" fill="#eef2ec" opacity=".8"/>
  
  
  <rect x="70" y="64" width="178" height="38" rx="19" fill="#112018"/>
  <text x="159" y="89" text-anchor="middle" font-family="Arial, sans-serif" font-size="17" font-weight="700" fill="#e9fff0">02/09</text>
  <text x="70" y="148" font-family="Arial, PingFang SC, sans-serif" font-size="22" font-weight="800" fill="#188a54" letter-spacing="2">先搞懂它</text>
  
  
    <text x="74" y="242" text-anchor="start" font-family="PingFang SC, Noto Sans CJK SC, Microsoft YaHei, Arial, sans-serif" font-size="70" font-weight="900" fill="#111827" letter-spacing="0"><tspan x="74" dy="0">不是手机写代码</tspan><tspan x="74" dy="79.8">而是手机接管 Codex</tspan></text>
    <text x="74" y="398" text-anchor="start" font-family="PingFang SC, Noto Sans CJK SC, Microsoft YaHei, Arial, sans-serif" font-size="34" font-weight="500" fill="#52605a" letter-spacing="0"><tspan x="74" dy="0">真正有用的是远程查看进度、补充判断、批准下</tspan><tspan x="74" dy="48.28">一步</tspan></text>
    
  <rect x="76" y="570" width="460" height="360" rx="34" fill="#202722"/>
  <rect x="96" y="590" width="420" height="320" rx="20" fill="#fcfdf9"/>
  <rect x="128" y="628" width="356" height="72" rx="18" fill="#111827"/>
  <text x="158" y="675" font-family="Arial, PingFang SC, sans-serif" font-size="30" font-weight="800" fill="#e9fff0">电脑端</text>
  <rect x="128" y="730" width="356" height="92" rx="20" fill="#e9f5ed"/>
  <text x="158" y="784" font-family="PingFang SC, Arial, sans-serif" font-size="26" font-weight="700" fill="#176b43">正在读取项目、修改文件、运行测试</text>
  <rect x="128" y="852" width="356" height="170" rx="20" fill="#101612"/>
  <text x="158" y="900" font-family="Menlo, Monaco, monospace" font-size="22" fill="#92f0b0">$ npm test</text>
  <text x="158" y="942" font-family="Menlo, Monaco, monospace" font-size="22" fill="#d8f8df">✓ 24 tests passed</text>
  <text x="158" y="984" font-family="Menlo, Monaco, monospace" font-size="22" fill="#f8e3a2">review diff before commit</text>
  <rect x="177.2" y="938" width="257.6" height="22" rx="11" fill="#202722"/>
  
    
  <rect x="625" y="520" width="300" height="580" rx="30" fill="#101612"/>
  <rect x="640" y="535" width="270" height="550" rx="22.5" fill="#fbfcf9"/>
  <rect x="730" y="550" width="90" height="12" rx="6" fill="#101612"/>
  <text x="667" y="608" font-family="Arial, PingFang SC, sans-serif" font-size="30" font-weight="800" fill="#111827">手机端</text>
  <rect x="661" y="644" width="258" height="88" rx="22" fill="#e9f5ed"/>
  <text x="687" y="697" font-family="PingFang SC, Arial, sans-serif" font-size="25" font-weight="700" fill="#176b43">看进度</text>
  <rect x="661" y="752" width="258" height="98" rx="22" fill="#111827"/>
  <text x="687" y="811" font-family="PingFang SC, Arial, sans-serif" font-size="25" font-weight="700" fill="#ffffff">补需求</text>
  <rect x="661" y="870" width="258" height="88" rx="22" fill="#f0f2ee"/>
  <text x="687" y="923" font-family="PingFang SC, Arial, sans-serif" font-size="25" font-weight="700" fill="#38413c">做确认</text>
  <rect x="661" y="1002" width="258" height="54" rx="27" fill="#edf0ec"/>
  <text x="687" y="1037" font-family="PingFang SC, Arial, sans-serif" font-size="21" fill="#68736d">给 Codex 补充一句指令...</text>
  
    
  <path d="M526 725 C575.5 645, 575.5 800, 625 720" stroke="#188a54" stroke-width="10" fill="none" stroke-linecap="round"/>
  <path d="M597 710 L625 720 L607 744" stroke="#188a54" stroke-width="10" fill="none" stroke-linecap="round" stroke-linejoin="round"/>
  
    
  <rect x="74" y="1058" width="430" height="178" rx="30" fill="#ffffff" stroke="#dde5dc" stroke-width="2"/>
  <text x="108" y="1116" font-family="PingFang SC, Arial, sans-serif" font-size="31" font-weight="800" fill="#111827">电脑端</text>
  <text x="108" y="1158" text-anchor="start" font-family="PingFang SC, Noto Sans CJK SC, Microsoft YaHei, Arial, sans-serif" font-size="24" font-weight="500" fill="#5d6762" letter-spacing="0"><tspan x="108" dy="0">负责读文件、跑命令、改代码</tspan><tspan x="108" dy="30.72">、测结果</tspan></text>
  
    
  <rect x="576" y="1058" width="430" height="178" rx="30" fill="#ffffff" stroke="#dde5dc" stroke-width="2"/>
  <text x="610" y="1116" font-family="PingFang SC, Arial, sans-serif" font-size="31" font-weight="800" fill="#111827">手机端</text>
  <text x="610" y="1158" text-anchor="start" font-family="PingFang SC, Noto Sans CJK SC, Microsoft YaHei, Arial, sans-serif" font-size="24" font-weight="500" fill="#5d6762" letter-spacing="0"><tspan x="610" dy="0">负责看状态、补判断、批准或</tspan><tspan x="610" dy="30.72">暂停</tspan></text>
  
    
</svg>