<?xml version="1.0" encoding="UTF-8"?>
<svg xmlns="http://www.w3.org/2000/svg" width="1080" height="1440" viewBox="0 0 1080 1440">
  <title>这 4 种情况 特别实用</title>
  
  <rect width="1080" height="1440" rx="0" fill="#f7f8f4"/>
  <circle cx="960" cy="132" r="110" fill="#dcefe4" opacity=".75"/>
  <circle cx="110" cy="1260" r="150" fill="#e9eee9" opacity=".9"/>
  <path d="M0 1120 C220 1040 360 1190 560 1110 C760 1030 880 1090 1080 1010 L1080 1440 L0 1440 Z" fill="#eef2ec" opacity=".8"/>
  
  
  <rect x="70" y="64" width="178" height="38" rx="19" fill="#112018"/>
  <text x="159" y="89" text-anchor="middle" font-family="Arial, sans-serif" font-size="17" font-weight="700" fill="#e9fff0">07/09</text>
  <text x="70" y="148" font-family="Arial, PingFang SC, sans-serif" font-size="22" font-weight="800" fill="#188a54" letter-spacing="2">最适合的场景</text>
  
  
    <text x="74" y="242" text-anchor="start" font-family="PingFang SC, Noto Sans CJK SC, Microsoft YaHei, Arial, sans-serif" font-size="72" font-weight="900" fill="#111827" letter-spacing="0"><tspan x="74" dy="0">这 4 种情况</tspan><tspan x="74" dy="81.35999999999999">特别实用</tspan></text>
    <text x="74" y="398" text-anchor="start" font-family="PingFang SC, Noto Sans CJK SC, Microsoft YaHei, Arial, sans-serif" font-size="34" font-weight="500" fill="#52605a" letter-spacing="0"><tspan x="74" dy="0">它适合碎片时间接管，不适合在手机上硬写复杂</tspan><tspan x="74" dy="48.28">代码</tspan></text>
    
  <rect x="76" y="540" width="430" height="178" rx="30" fill="#ffffff" stroke="#dde5dc" stroke-width="2"/>
  <text x="110" y="598" font-family="PingFang SC, Arial, sans-serif" font-size="31" font-weight="800" fill="#111827">通勤路上</text>
  <text x="110" y="640" text-anchor="start" font-family="PingFang SC, Noto Sans CJK SC, Microsoft YaHei, Arial, sans-serif" font-size="24" font-weight="500" fill="#5d6762" letter-spacing="0"><tspan x="110" dy="0">确认 Codex 的执行方</tspan><tspan x="110" dy="30.72">向</tspan></text>
  
    
  <rect x="576" y="540" width="430" height="178" rx="30" fill="#ffffff" stroke="#dde5dc" stroke-width="2"/>
  <text x="610" y="598" font-family="PingFang SC, Arial, sans-serif" font-size="31" font-weight="800" fill="#111827">开会间隙</text>
  <text x="610" y="640" text-anchor="start" font-family="PingFang SC, Noto Sans CJK SC, Microsoft YaHei, Arial, sans-serif" font-size="24" font-weight="500" fill="#5d6762" letter-spacing="0"><tspan x="610" dy="0">查看任务是否卡住</tspan></text>
  
    
  <rect x="76" y="780" width="430" height="178" rx="30" fill="#ffffff" stroke="#dde5dc" stroke-width="2"/>
  <text x="110" y="838" font-family="PingFang SC, Arial, sans-serif" font-size="31" font-weight="800" fill="#111827">离开电脑</text>
  <text x="110" y="880" text-anchor="start" font-family="PingFang SC, Noto Sans CJK SC, Microsoft YaHei, Arial, sans-serif" font-size="24" font-weight="500" fill="#5d6762" letter-spacing="0"><tspan x="110" dy="0">远程批准下一步</tspan></text>
  
    
  <rect x="576" y="780" width="430" height="178" rx="30" fill="#ffffff" stroke="#dde5dc" stroke-width="2"/>
  <text x="610" y="838" font-family="PingFang SC, Arial, sans-serif" font-size="31" font-weight="800" fill="#111827">突然有想法</text>
  <text x="610" y="880" text-anchor="start" font-family="PingFang SC, Noto Sans CJK SC, Microsoft YaHei, Arial, sans-serif" font-size="24" font-weight="500" fill="#5d6762" letter-spacing="0"><tspan x="610" dy="0">马上补充新要求</tspan></text>
  
    
  <rect x="360" y="1030" width="360" height="300" rx="36" fill="#101612"/>
  <rect x="375" y="1045" width="330" height="270" rx="27" fill="#fbfcf9"/>
  <rect x="486" y="1060" width="108" height="12" rx="6" fill="#101612"/>
  <text x="402" y="1118" font-family="Arial, PingFang SC, sans-serif" font-size="30" font-weight="800" fill="#111827">Codex</text>
  <rect x="396" y="1154" width="318" height="88" rx="22" fill="#e9f5ed"/>
  <text x="422" y="1207" font-family="PingFang SC, Arial, sans-serif" font-size="25" font-weight="700" fill="#176b43">状态同步</text>
  <rect x="396" y="1262" width="318" height="98" rx="22" fill="#111827"/>
  <text x="422" y="1321" font-family="PingFang SC, Arial, sans-serif" font-size="25" font-weight="700" fill="#ffffff">等待确认</text>
  <rect x="396" y="1380" width="318" height="88" rx="22" fill="#f0f2ee"/>
  <text x="422" y="1433" font-family="PingFang SC, Arial, sans-serif" font-size="25" font-weight="700" fill="#38413c">继续执行</text>
  <rect x="396" y="1232" width="318" height="54" rx="27" fill="#edf0ec"/>
  <text x="422" y="1267" font-family="PingFang SC, Arial, sans-serif" font-size="21" fill="#68736d">给 Codex 补充一句指令...</text>
  
    
</svg>